<svg width="24" height="24" viewBox="0 0 24 24">
    <g fill="none" fill-rule="evenodd">
        <g transform="translate(8 8)">
            <path fill="currentColor"
                  d="M7.766.132c.276.2.313.552.083.788L1.148 7.801c-.23.236-.637.267-.914.067-.276-.2-.313-.552-.083-.788L6.852.199c.23-.236.637-.267.914-.067z"></path>
        </g>
        <g transform="translate(8 8)">
            <path fill="currentColor"
                  d="M.234.132C-.042.332-.08.684.15.92l6.701 6.881c.23.236.637.267.914.067.276-.2.313-.552.083-.788L1.148.199C.918-.037.511-.068.234.132z"></path>
        </g>
    </g>
</svg>