<svg width="20" height="20" viewBox="0 -4 20 20"><g fill="currentColor"><path d="M9.75 3c-.475 0-.9.1-1.3.3.175.175.3.425.3.7 0 .55-.45 1-1 1a.908.908 0 0 1-.7-.3c-.2.4-.3.825-.3 1.3 0 1.65 1.35 3 3 3s3-1.35 3-3-1.35-3-3-3z"></path><path d="M9.925 0C5.9 0 2.125 2.175.1 5.7l-.1.175.1.2c2.025 3.5 5.8 5.7 9.825 5.7 4.025 0 7.8-2.175 9.825-5.7l.1-.2-.1-.2A11.401 11.401 0 0 0 9.925 0zM.85 5.875c1.525-2.5 4-4.25 6.825-4.875A5.37 5.37 0 0 0 4.55 5.875a5.37 5.37 0 0 0 3.125 4.875A10.77 10.77 0 0 1 .85 5.875zm4.45 0A4.63 4.63 0 0 1 9.925 1.25a4.63 4.63 0 0 1 4.625 4.625A4.63 4.63 0 0 1 9.925 10.5 4.63 4.63 0 0 1 5.3 5.875zm6.875 4.875A5.37 5.37 0 0 0 15.3 5.875 5.37 5.37 0 0 0 12.175 1c2.8.625 5.3 2.375 6.825 4.875a10.77 10.77 0 0 1-6.825 4.875z"></path></g></svg>