<svg width="30" height="30" viewBox="0 0 30 30">
    <path fill="none" fill-rule="evenodd"
          d="M22.602 15c0-1.38 1.096-2.5 2.449-2.5 1.353 0 2.449 1.12
                      2.449 2.5s-1.096 2.5-2.449 2.5c-1.353 0-2.449-1.12-2.449-2.5zm-9.551
                       0c0-1.38 1.096-2.5 2.449-2.5 1.353 0 2.449 1.12 2.449
                        2.5s-1.096 2.5-2.449 2.5c-1.353 0-2.449-1.12-2.449-2.5zM3.5 15c0-1.38
                         1.096-2.5 2.449-2.5 1.353 0 2.449 1.12 2.449 2.5s-1.096
                      2.5-2.449 2.5C4.596 17.5 3.5 16.38 3.5 15z">
    </path>
</svg>