<svg width="20" height="20" viewBox="0 -2 20 20"><defs><mask id="svgm-79b27c99-5fec-40e9-99d9-babc5470132a" x="0" y="0" width="20" height="20"><rect fill="#fff" width="20" height="20" x="0" y="0"></rect><path fill="#000" d="M15.42.005l1.126 1.127L3.156 14.52 2.03 13.394z"></path></mask></defs><g fill="currentColor"><g fill="currentColor" mask="url(#svgm-79b27c99-5fec-40e9-99d9-babc5470132a)"><path d="M9.75 5c-.475 0-.9.1-1.3.3.175.175.3.425.3.7 0 .55-.45 1-1 1a.908.908 0 0 1-.7-.3c-.2.4-.3.825-.3 1.3 0 1.65 1.35 3 3 3s3-1.35 3-3-1.35-3-3-3z"></path><path d="M9.925 2C5.9 2 2.125 4.175.1 7.7l-.1.175.1.2c2.025 3.5 5.8 5.7 9.825 5.7 4.025 0 7.8-2.175 9.825-5.7l.1-.2-.1-.2A11.401 11.401 0 0 0 9.925 2zM.85 7.875c1.525-2.5 4-4.25 6.825-4.875A5.37 5.37 0 0 0 4.55 7.875a5.37 5.37 0 0 0 3.125 4.875A10.77 10.77 0 0 1 .85 7.875zm4.45 0A4.63 4.63 0 0 1 9.925 3.25a4.63 4.63 0 0 1 4.625 4.625A4.63 4.63 0 0 1 9.925 12.5 4.63 4.63 0 0 1 5.3 7.875zm6.875 4.875A5.37 5.37 0 0 0 15.3 7.875 5.37 5.37 0 0 0 12.175 3c2.8.625 5.3 2.375 6.825 4.875a10.77 10.77 0 0 1-6.825 4.875z"></path></g><path fill="currentColor" d="M16.546 1.132l1.126 1.126-13.389 13.39-1.126-1.127z"></path></g></svg>